<svg xmlns="http://www.w3.org/2000/svg" width="512" height="512" viewBox="0 0 512 512">
  <defs>
    <linearGradient id="bg" x1="64" y1="48" x2="440" y2="472" gradientUnits="userSpaceOnUse">
      <stop offset="0%" stop-color="#0F172A"/>
      <stop offset="100%" stop-color="#111C35"/>
    </linearGradient>
    <radialGradient id="halo" cx="38%" cy="24%" r="74%">
      <stop offset="0%" stop-color="#334155" stop-opacity="0.68"/>
      <stop offset="100%" stop-color="#0F172A" stop-opacity="0"/>
    </radialGradient>
  </defs>

  <rect x="24" y="24" width="464" height="464" rx="108" fill="url(#bg)"/>
  <circle cx="220" cy="196" r="198" fill="url(#halo)"/>

  <circle cx="256" cy="256" r="156" fill="none" stroke="#334155" stroke-width="54" stroke-linecap="round"/>
  <path d="M136.497 356.275 A156 156 0 0 1 371.931 151.616" fill="none" stroke="#22C55E" stroke-width="54" stroke-linecap="round"/>
  <path d="M385.330 168.766 A156 156 0 0 1 368.217 364.367" fill="none" stroke="#F59E0B" stroke-width="54" stroke-linecap="round"/>
  <path d="M352.043 378.930 A156 156 0 0 1 207.793 404.365" fill="none" stroke="#EF4444" stroke-width="54" stroke-linecap="round"/>

  <circle cx="256" cy="256" r="92" fill="none" stroke="#24364D" stroke-width="34" stroke-linecap="round"/>
  <path d="M196.864 185.524 A92 92 0 0 1 342.452 287.466" fill="none" stroke="#38BDF8" stroke-width="34" stroke-linecap="round"/>
  <path d="M326.476 315.136 A92 92 0 0 1 164.504 246.383" fill="none" stroke="#818CF8" stroke-width="34" stroke-linecap="round"/>

  <circle cx="256" cy="256" r="44" fill="#020617"/>
  <circle cx="240" cy="256" r="10" fill="#E2E8F0"/>
  <circle cx="272" cy="256" r="10" fill="#94A3B8"/>
  <rect x="251" y="232" width="10" height="48" rx="5" fill="#475569"/>
</svg>
